<?xml version="1.0" encoding="utf-8"?>
<!-- Svg Vector Icons : http://www.onlinewebfonts.com/icon -->
<!DOCTYPE svg PUBLIC "-//W3C//DTD SVG 1.1//EN" "http://www.w3.org/Graphics/SVG/1.1/DTD/svg11.dtd">
<svg version="1.1" xmlns="http://www.w3.org/2000/svg" xmlns:xlink="http://www.w3.org/1999/xlink" x="0px" y="0px" viewBox="0 0 256 256" enable-background="new 0 0 256 256" xml:space="preserve">
<metadata> Svg Vector Icons : http://www.onlinewebfonts.com/icon </metadata>
<g><g><g><g><path fill="#595959" d="M234.6,191.2v-15c0-0.8-0.6-1.3-1.3-1.3s-1.3,0.6-1.3,1.3v15c0,0.7,0.6,1.3,1.3,1.3C234.1,192.6,234.6,192,234.6,191.2z"/><path fill="#595959" d="M126.8,128c-2.8,0-5.1,1.2-5.1,2.7c0,1.5,2.3,2.7,5.1,2.7h105.6c4.6,0,8.3,3.7,8.3,8.3v84.3c0,4.6-3.7,8.3-8.3,8.3H126.6c-2.8,0-5.1-1.2-5.1-2.6c0-1.5,2.3-2.6,5.1-2.6h95.9c0.7,0,1.3-0.6,1.3-1.3v-87.7c0-0.7-0.6-1.3-1.3-1.3h-95.9c-2.8,0-5.1-2.3-5.1-5.1V64c0-7.5-6.1-13.6-13.6-13.6H23.6C16.1,50.4,10,56.5,10,64v173.4c0,7.5,6.1,13.6,13.6,13.6h84.3c5,0,9.4-2.7,11.7-6.8c1.4-2.4,4-4.7,6.8-4.7h106c7.5,0,13.6-6.1,13.6-13.6v-84.4c0-7.5-6.1-13.6-13.6-13.6H126.8L126.8,128z M126.6,141.2h89.5c2.8,0,5.1,2.3,5.1,5.1v74.9c0,2.8-2.3,5.1-5.1,5.1h-89.5c-2.8,0-5.1-2.3-5.1-5.1v-74.9C121.6,143.5,123.8,141.2,126.6,141.2z M116.2,237.4c0,4.6-3.7,8.3-8.3,8.3H23.6c-4.6,0-8.3-3.7-8.3-8.3V64c0-4.6,3.7-8.3,8.3-8.3h84.3c4.6,0,8.3,3.7,8.3,8.3V237.4L116.2,237.4z"/><path fill="#595959" d="M109.6,72.5H21.9c-0.7,0-1.3,0.6-1.3,1.3v152.2c0,0.7,0.6,1.3,1.3,1.3h87.7c0.8,0,1.3-0.6,1.3-1.3V73.9C111,73.2,110.4,72.5,109.6,72.5z M103.2,224.8H28.3c-2.8,0-5.1-2.3-5.1-5.1V80.3c0-2.8,2.3-5.1,5.1-5.1h74.9c2.8,0,5.1,2.3,5.1,5.1v139.4C108.3,222.5,106,224.8,103.2,224.8z"/><path fill="#595959" d="M58.3,64.5h15c0.8,0,1.3-0.6,1.3-1.3c0-0.7-0.6-1.3-1.3-1.3h-15c-0.8,0-1.3,0.6-1.3,1.3C57,63.9,57.6,64.5,58.3,64.5z"/><path fill="#595959" d="M73.4,230.5H58.1c-3.1,0-5.7,2.6-5.7,5.7v0.9c0,3.1,2.6,5.7,5.7,5.7h15.3c3.1,0,5.7-2.6,5.7-5.7v-0.9C79.2,233.1,76.6,230.5,73.4,230.5z M76.5,237.1c0,1.7-1.4,3-3,3H58.1c-1.7,0-3-1.4-3-3v-0.9c0-1.7,1.4-3,3-3h15.3c1.7,0,3,1.4,3,3V237.1z"/><path fill="#595959" d="M171.2,74.9c0,0.2,1.1,0.6,2.6,0.8c1.5,0.2,2.7,0.1,2.7-0.1c0-0.3,0.1-0.5,0.1-0.5c1.9-15.5-2-31.1-11.2-44c-4.8-6.8-10.8-12.4-17.9-16.8C123.7-0.4,93.3,2.6,72.9,20.9c-1.5,1.3-3.8,1.5-5.4,0.3l-4.4-3.4c-1.6-1.2-2.6-0.6-2.4,1.4l1.8,14.1c0.3,2,2,3.3,4,3.1l14.1-1.8c1.9-0.2,2.3-1.4,0.7-2.6l-4-3.1c-1.6-1.2-1.7-3.3-0.2-4.6c18.6-16.2,46-18.7,67.5-5.4c6.5,4,12,9.2,16.4,15.4c8.3,11.7,12,26,10.2,40.2L171.2,74.9z"/></g></g><g></g><g></g><g></g><g></g><g></g><g></g><g></g><g></g><g></g><g></g><g></g><g></g><g></g><g></g><g></g></g></g>
</svg>